<svg width="900" height="560" viewBox="0 0 900 560" fill="none" xmlns="http://www.w3.org/2000/svg">
  <rect width="900" height="560" rx="34" fill="#090615"/>
  <circle cx="670" cy="120" r="190" fill="#8B5CF6" opacity=".18"/>
  <rect x="70" y="70" width="350" height="420" rx="28" fill="#120B24" stroke="#51348E"/>
  <rect x="480" y="90" width="350" height="380" rx="28" fill="#0E1322" stroke="#22D3EE" stroke-opacity=".35"/>
  <rect x="108" y="118" width="126" height="32" rx="10" fill="#8B5CF6"/>
  <rect x="108" y="190" width="250" height="18" rx="9" fill="#FFFFFF" opacity=".75"/>
  <rect x="108" y="228" width="190" height="14" rx="7" fill="#FFFFFF" opacity=".25"/>
  <rect x="108" y="286" width="270" height="120" rx="22" fill="#1B1232" stroke="#6D4BC6"/>
  <path d="M126 366C162 320 198 374 235 328C271 282 319 354 356 304" stroke="#22D3EE" stroke-width="5"/>
  <rect x="520" y="138" width="260" height="42" rx="14" fill="#151D31"/>
  <rect x="520" y="216" width="118" height="118" rx="22" fill="#1A1234"/>
  <rect x="662" y="216" width="118" height="118" rx="22" fill="#111B2D"/>
  <rect x="520" y="368" width="260" height="44" rx="14" fill="#22D3EE"/>
  <text x="112" y="144" fill="white" font-family="Arial" font-size="22" font-weight="700">AI Workspace</text>
  <text x="540" y="396" fill="#05030B" font-family="Arial" font-size="22" font-weight="700">Launch Flow</text>
</svg>
