<svg width="900" height="560" viewBox="0 0 900 560" fill="none" xmlns="http://www.w3.org/2000/svg">
  <rect width="900" height="560" rx="34" fill="#05030B"/>
  <path d="M0 0h900v560H0z" fill="url(#g)"/>
  <rect x="72" y="82" width="756" height="396" rx="32" fill="#07111C" stroke="#22D3EE" stroke-opacity=".35"/>
  <path d="M450 120l36 102 108 2-86 64 32 104-90-62-90 62 32-104-86-64 108-2 36-102Z" fill="#22D3EE" opacity=".18" stroke="#22D3EE"/>
  <rect x="132" y="144" width="230" height="58" rx="18" fill="#0F2034"/>
  <rect x="132" y="246" width="230" height="172" rx="24" fill="#0E1728"/>
  <rect x="538" y="144" width="230" height="274" rx="24" fill="#101225"/>
  <path d="M168 360C205 318 236 376 274 326C310 278 338 336 362 294" stroke="#22D3EE" stroke-width="5"/>
  <text x="132" y="470" fill="white" font-family="Arial" font-size="34" font-weight="800">AI Agency Command Center</text>
  <defs><radialGradient id="g" cx="0" cy="0" r="1" gradientUnits="userSpaceOnUse" gradientTransform="translate(674 88) rotate(141) scale(500 360)"><stop stop-color="#22D3EE" stop-opacity=".24"/><stop offset="1" stop-color="#05030B" stop-opacity="0"/></radialGradient></defs>
</svg>
