<svg width="900" height="560" viewBox="0 0 900 560" fill="none" xmlns="http://www.w3.org/2000/svg">
  <rect width="900" height="560" rx="34" fill="#031112"/>
  <ellipse cx="490" cy="290" rx="360" ry="160" fill="#22D3EE" opacity=".13"/>
  <g transform="translate(190 70) rotate(-18)">
    <rect width="170" height="350" rx="30" fill="#09131E" stroke="#22D3EE" stroke-opacity=".45"/>
    <rect x="24" y="54" width="122" height="46" rx="16" fill="#123047"/>
    <rect x="24" y="130" width="122" height="110" rx="20" fill="#0F1D2C"/>
    <path d="M40 210C64 174 90 226 128 168" stroke="#22D3EE" stroke-width="4"/>
  </g>
  <g transform="translate(402 50) rotate(8)">
    <rect width="190" height="390" rx="32" fill="#0A1020" stroke="#8B5CF6" stroke-opacity=".5"/>
    <rect x="28" y="70" width="134" height="52" rx="18" fill="#1C1740"/>
    <rect x="28" y="160" width="134" height="150" rx="22" fill="#111B2A"/>
    <circle cx="96" cy="236" r="42" stroke="#22D3EE" stroke-width="10"/>
  </g>
  <g transform="translate(625 120) rotate(20)">
    <rect width="150" height="310" rx="28" fill="#081B1C" stroke="#22D3EE" stroke-opacity=".35"/>
    <rect x="24" y="58" width="102" height="38" rx="14" fill="#11363A"/>
    <rect x="24" y="132" width="102" height="92" rx="18" fill="#0E2427"/>
  </g>
  <text x="76" y="482" fill="white" font-family="Arial" font-size="34" font-weight="800">Mobile AI Ecosystem</text>
</svg>
